<svg width="17" height="16" viewBox="0 0 17 16" fill="none" xmlns="http://www.w3.org/2000/svg">
<path d="M4.5571 13.411C4.3968 13.4107 4.244 13.3432 4.13596 13.2247C4.02593 13.1073 3.97125 12.9485 3.98567 12.7882L4.12567 11.2487L10.5931 4.78359L12.6142 6.80416L6.14853 13.2687L4.6091 13.4087C4.59139 13.4104 4.57367 13.411 4.5571 13.411ZM13.0177 6.40016L10.9971 4.37959L12.2091 3.16759C12.3163 3.06029 12.4617 3 12.6134 3C12.765 3 12.9105 3.06029 13.0177 3.16759L14.2297 4.37959C14.337 4.48677 14.3973 4.63222 14.3973 4.78388C14.3973 4.93554 14.337 5.08098 14.2297 5.18816L13.0182 6.39959L13.0177 6.40016Z" fill="#B1C7FF"/>
</svg>
